<?xml version="1.0" encoding="UTF-8"?>
<!DOCTYPE svg PUBLIC "-//W3C//DTD SVG 1.1//EN" "http://www.w3.org/Graphics/SVG/1.1/DTD/svg11.dtd">
<!-- Creator: CorelDRAW 2018 (64-Bit) -->
<svg xmlns="http://www.w3.org/2000/svg" xml:space="preserve" width="113px" height="80px" version="1.1" style="shape-rendering:geometricPrecision; text-rendering:geometricPrecision; image-rendering:optimizeQuality; fill-rule:evenodd; clip-rule:evenodd"
viewBox="0 0 113 79.9"
 xmlns:xlink="http://www.w3.org/1999/xlink">
 <defs>
  <style type="text/css">
   <![CDATA[
    .fil1 {fill:black}
    .fil0 {fill:#FBFBFB}
   ]]>
  </style>
 </defs>
 <g id="Слой_x0020_1">
  <metadata id="CorelCorpID_0Corel-Layer"/>
  <g id="_1039823009088">
   <path class="fil0" d="M36.27 8.1c-1.77,0 -3,0.3 -4.56,1.05 -0.86,0.41 -1.14,0.64 -1.91,1.24 -0.18,0.15 -0.55,0.4 -0.7,0.56 -0.11,0.12 -0.15,0.21 -0.28,0.35 -0.8,0.8 -0.78,0.91 -1.38,1.77 -0.52,0.76 -0.59,1.25 -0.9,1.91 -0.06,0.15 -0.04,0.01 -0.07,0.25 -0.02,0.22 -0.07,0.33 -0.1,0.53l-0.12 0.52c-0.09,1.24 -0.35,1.33 -0.13,2.81 0.05,0.38 0.16,1.26 0.28,1.6l0.49 1.41c0.15,0.37 0.65,1.33 0.9,1.61 0.2,0.24 0.32,0.49 0.55,0.71 0.22,0.21 0.43,0.4 0.63,0.63 0.34,0.37 0.63,0.61 0.95,0.93 0.14,0.14 0.22,0.18 0.35,0.29l0.76 0.49c0.26,0.14 0.59,0.31 0.84,0.42 0.49,0.23 1.3,0.52 1.85,0.67 0.71,0.19 1.37,0.31 2.22,0.3 0.36,0 0.83,0.01 1.16,-0.06l1.04 -0.21c0.32,-0.1 0.68,-0.16 1.01,-0.25 1.03,-0.31 2.49,-1.03 3.27,-1.76 0.24,-0.23 0.41,-0.36 0.66,-0.6 0.24,-0.23 0.36,-0.44 0.6,-0.66 0.16,-0.16 0.91,-1.22 1.05,-1.47l0.42 -0.83c0.12,-0.24 0.29,-0.6 0.38,-0.89 0.32,-1.03 0.28,-1.03 0.5,-2.01 0.11,-0.51 0.14,-1.66 0.04,-2.24 -0.05,-0.31 -0.16,-0.62 -0.22,-1.03 -0.02,-0.16 -0.28,-1.29 -0.38,-1.51 -0.06,-0.14 -0.12,-0.28 -0.19,-0.44 -0.18,-0.41 -0.87,-1.75 -1.13,-2.01l-0.59 -0.67c-0.13,-0.14 -0.15,-0.22 -0.29,-0.34 -0.22,-0.19 -0.41,-0.47 -0.64,-0.62 -0.62,-0.42 -0.77,-0.63 -1.47,-1.05l-1.72 -0.8 -0.96 -0.29c-0.71,-0.16 -1.42,-0.31 -2.21,-0.31z"/>
   <path class="fil1" d="M35.32 9.03c-0.64,0.09 -1.33,0.22 -1.97,0.34 -0.23,0.05 -1.44,0.59 -1.62,0.69l-1.41 0.9c-0.48,0.33 -0.8,0.77 -1.18,1.12 -0.41,0.39 -1.09,1.55 -1.35,2.1l-0.28 0.6c-0.52,1.22 -0.8,2.89 -0.63,4.19 0.13,1.04 0.28,1.83 0.68,2.74 0.06,0.15 0.09,0.27 0.16,0.42 0.07,0.15 0.12,0.26 0.2,0.41 0.08,0.16 0.33,0.58 0.41,0.71 0.37,0.52 0.59,0.84 1.02,1.29 1.13,1.17 2.05,1.7 3.48,2.31l1.31 0.39c0.23,0.04 0.3,0.08 0.48,0.11 0.71,0.14 1.96,0.12 2.7,-0.01 0.17,-0.03 0.3,-0.08 0.47,-0.1l1.4 -0.33c0.43,-0.15 1.58,-0.72 1.93,-0.96 0.84,-0.59 1.47,-1.06 2.11,-1.92 0.08,-0.1 0.16,-0.19 0.26,-0.32l0.47 -0.71c0.1,-0.14 0.32,-0.54 0.4,-0.73l0.29 -0.59c0.24,-0.39 0.46,-1.65 0.56,-2.05 0.09,-0.4 0.17,-1.67 0.11,-2.16 -0.05,-0.32 -0.1,-0.67 -0.14,-0.99 -0.06,-0.4 -0.38,-1.41 -0.55,-1.76 -0.43,-0.88 -0.61,-1.35 -1.27,-2.22 -0.33,-0.43 -0.74,-0.91 -1.11,-1.19 -0.24,-0.19 -0.41,-0.36 -0.62,-0.51l-0.72 -0.47c-0.34,-0.19 -0.29,-0.21 -0.52,-0.3 -0.25,-0.1 -0.54,-0.28 -1.02,-0.46 -1.12,-0.4 -2.84,-0.72 -4.05,-0.54z"/>
   <path class="fil0" d="M28.8 21.95c0.23,0 0.33,-0.15 0.51,-0.25 0.14,-0.08 0.41,-0.22 0.49,-0.31 0.42,-0.45 -0.08,-1.34 0.12,-2.03 0.07,-0.23 0.2,-0.3 0.38,-0.4 0.44,-0.26 0.97,-0.38 1.13,-0.47 0.01,-0.18 -0.22,-0.66 -0.28,-0.78 -0.19,0 -0.37,0.11 -0.67,0.08 -0.21,-0.02 -0.38,-0.23 -0.42,-0.39 -0.17,-0.67 0.11,-0.72 0.54,-1 0.02,-0.3 -0.22,-0.6 0.09,-0.58 0.17,0.01 0.19,0.2 0.29,0.33l0.79 0c0.11,0.17 0.35,0.58 0.34,0.79 -0.03,0.53 -0.78,0.24 -0.45,0.96l0.16 0.37c0.33,0.02 1.39,-0.5 1.77,-0.65 0.42,-0.18 0.65,-0.19 0.46,-0.62 -0.06,-0.13 -0.08,-0.32 -0.22,-0.35 -0.04,0 -0.03,-0.03 -0.27,0.01 -0.33,0.07 -0.67,-0.01 -0.76,-0.39 -0.27,-1.12 0.63,-0.6 0.52,-1.24l-0.01 -0.24c0.03,-0.14 0.23,-0.05 0.29,0.04 0.29,0.46 0.14,0.21 0.89,0.21 0.1,0.18 0.35,0.56 0.36,0.78 0,0.17 -0.09,0.3 -0.21,0.37 -0.29,0.17 -0.58,0.2 -0.06,1.03l1.77 -0.7c0.13,-0.05 0.16,-0.09 0.27,-0.14l0.31 -0.13c0.01,0 0.03,-0.01 0.04,-0.02 0,-0.31 -0.17,-0.53 -0.25,-0.78 -0.49,0.02 -0.93,0.2 -1.1,-0.33 -0.28,-0.87 0.39,-0.81 0.49,-1.03 0.06,-0.36 -0.12,-0.25 -0.05,-0.52l0.24 -0.07 0.26 0.4c0.53,0.02 0.73,-0.2 0.97,0.32 0.09,0.22 0.19,0.46 0.03,0.66 -0.32,0.42 -0.78,0 -0.16,1.15 0.19,0 2.05,-0.78 2.32,-0.93 0.02,-0.23 -0.14,-0.65 -0.24,-0.86 -0.31,-0.04 -1.15,0.41 -1.21,-0.62 -0.02,-0.32 0.16,-0.46 0.41,-0.57 0.46,-0.21 0.08,-0.32 0.17,-0.7 0.33,-0.04 0.27,0.17 0.44,0.36 0.26,0.02 0.46,-0.05 0.76,0 0.3,0.29 0.58,0.86 0.07,1.13 -0.23,0.12 -0.36,0.18 -0.26,0.5 0.02,0.06 0.26,0.53 0.29,0.57 0.51,0 0.65,-0.32 1.32,-0.1 0.8,0.26 0.89,0.57 1.25,1.23 0.3,0.55 0.24,1.49 -0.15,2 -0.23,0.31 -0.54,0.51 -0.94,0.7 -0.2,0.09 -0.79,0.22 -1.05,0.15 -0.55,-0.15 -1.05,-0.34 -1.62,0.08 -0.35,0.27 -1.26,1.64 -1.64,2.1l-0.59 0.66c-0.12,0.12 -0.28,0.28 -0.41,0.39 -0.07,0.06 -0.15,0.11 -0.23,0.18 -0.29,0.27 -0.56,0.57 -0.88,0.81l-0.17 0.12c-0.53,0.34 -0.61,0.28 -1.18,-0.13 -0.34,-0.24 -0.82,-0.36 -1.34,-0.2 -0.1,0.03 -0.17,0.07 -0.26,0.11 -0.35,0.16 -1.66,0.9 -1.74,1.2 0.34,0.39 1.19,0.99 1.64,1.22 0.46,0.24 1.02,0.39 1.35,0.54 1.27,0.58 3.57,0.56 4.93,0.11 0.23,-0.08 0.5,-0.15 0.72,-0.24 0.16,-0.07 0.54,-0.22 0.64,-0.28 0.69,-0.45 1.37,-0.87 1.93,-1.43 0.09,-0.08 0.13,-0.14 0.23,-0.23 0.35,-0.3 1.09,-1.31 1.23,-1.67 0.19,-0.44 0.48,-0.81 0.61,-1.27 0.06,-0.19 0.06,-0.18 0.13,-0.34l0.17 -0.79c0.04,-0.26 0.05,-0.22 0.1,-0.4 0.08,-0.3 0.08,-1.43 0.04,-1.78 -0.03,-0.33 -0.06,-0.58 -0.1,-0.87l-0.2 -0.74c-0.26,-0.94 -0.71,-1.81 -1.28,-2.59 -0.46,-0.63 -1.02,-1.16 -1.65,-1.66 -0.85,-0.66 -1.84,-1.2 -2.92,-1.42 -0.53,-0.11 -0.99,-0.23 -1.65,-0.24 -0.61,-0.01 -1.3,-0.01 -1.83,0.11 -0.15,0.04 -0.28,0.03 -0.42,0.06 -0.08,0.02 -0.26,0.09 -0.37,0.13 -0.67,0.23 -1.44,0.53 -2.01,0.88 -0.67,0.42 -1.26,0.96 -1.79,1.53 -0.39,0.42 -0.71,0.89 -1,1.39 -0.1,0.15 -0.27,0.48 -0.33,0.64 -0.05,0.15 -0.05,0.21 -0.12,0.35 -0.08,0.16 -0.09,0.16 -0.15,0.35 -0.07,0.23 -0.16,0.44 -0.23,0.69 -0.09,0.26 -0.09,0.53 -0.16,0.81 -0.16,0.71 -0.1,2.86 0.21,3.51l0.41 1c0.07,0.16 0.05,0.23 0.15,0.37z"/>
   <path class="fil0" d="M34.09 18.5c-0.53,0.22 -0.68,0.77 -0.14,1.1 0.21,0.13 0.28,0.19 0.46,0.1 0.27,-0.13 0.54,-0.48 0.44,-0.75 -0.09,-0.25 -0.38,-0.6 -0.76,-0.45z"/>
   <path class="fil0" d="M36.8 17.34c-0.93,0.43 -0.15,1.38 0.37,1.14 0.87,-0.39 0.24,-1.42 -0.37,-1.14z"/>
   <path class="fil0" d="M39.56 16.23c-0.05,0.03 -0.55,0.15 -0.43,0.7 0.08,0.41 0.58,0.51 0.72,0.46 0.84,-0.3 0.38,-1.27 -0.13,-1.21 -0.22,0.03 -0.08,0.01 -0.16,0.05z"/>
   <path class="fil0" d="M31.32 19.63c-0.26,0.09 -0.57,0.41 -0.42,0.71 0.1,0.19 0.14,0.24 0.28,0.32 0.66,0.4 1.04,-0.33 0.91,-0.66 -0.11,-0.25 -0.38,-0.51 -0.77,-0.37z"/>
  </g>
 </g>
</svg>
